<?xml version="1.0" encoding="UTF-8" standalone="no"?><!-- Generator: Gravit.io --><svg xmlns="http://www.w3.org/2000/svg" xmlns:xlink="http://www.w3.org/1999/xlink" style="isolation:isolate" viewBox="0 0 58 87" width="58pt" height="87pt"><defs><clipPath id="_clipPath_oRikTNZjNKsXU2NCfQupGiiy5GSu0G01"><rect width="58" height="87"/></clipPath></defs><g clip-path="url(#_clipPath_oRikTNZjNKsXU2NCfQupGiiy5GSu0G01)"><path d=" M 51.041 6.847 L 51.041 38.347 L 51.041 38.347 Q 51.041 41.085 50.01 43.5 L 50.01 43.5 L 50.01 43.5 Q 48.98 45.915 47.18 47.714 L 47.18 47.714 L 47.18 47.714 Q 45.381 49.514 42.966 50.544 L 42.966 50.544 L 42.966 50.544 Q 40.551 51.575 37.813 51.575 L 37.813 51.575 L 37.813 51.575 Q 35.352 51.575 33.091 50.714 L 33.091 50.714 L 33.091 50.714 Q 30.83 49.852 29.015 48.191 L 29.015 48.191 L 29.015 48.191 Q 27.2 49.852 24.924 50.714 L 24.924 50.714 L 24.924 50.714 Q 22.648 51.575 20.187 51.575 L 20.187 51.575 L 20.187 51.575 Q 17.449 51.575 15.034 50.544 L 15.034 50.544 L 15.034 50.544 Q 12.619 49.514 10.82 47.714 L 10.82 47.714 L 10.82 47.714 Q 9.02 45.915 7.99 43.5 L 7.99 43.5 L 7.99 43.5 Q 6.959 41.085 6.959 38.347 L 6.959 38.347 L 6.959 6.847 L 15.788 6.847 L 15.788 38.347 L 15.788 38.347 Q 15.788 39.27 16.126 40.085 L 16.126 40.085 L 16.126 40.085 Q 16.465 40.901 17.064 41.5 L 17.064 41.5 L 17.064 41.5 Q 17.664 42.1 18.464 42.439 L 18.464 42.439 L 18.464 42.439 Q 19.264 42.777 20.187 42.777 L 20.187 42.777 L 20.187 42.777 Q 21.11 42.777 21.909 42.439 L 21.909 42.439 L 21.909 42.439 Q 22.709 42.1 23.309 41.5 L 23.309 41.5 L 23.309 41.5 Q 23.909 40.901 24.247 40.085 L 24.247 40.085 L 24.247 40.085 Q 24.586 39.27 24.586 38.347 L 24.586 38.347 L 24.586 6.847 L 33.414 6.847 L 33.414 38.347 L 33.414 38.347 Q 33.414 39.27 33.753 40.085 L 33.753 40.085 L 33.753 40.085 Q 34.091 40.901 34.691 41.5 L 34.691 41.5 L 34.691 41.5 Q 35.291 42.1 36.091 42.439 L 36.091 42.439 L 36.091 42.439 Q 36.89 42.777 37.813 42.777 L 37.813 42.777 L 37.813 42.777 Q 38.736 42.777 39.536 42.439 L 39.536 42.439 L 39.536 42.439 Q 40.336 42.1 40.936 41.5 L 40.936 41.5 L 40.936 41.5 Q 41.535 40.901 41.889 40.085 L 41.889 40.085 L 41.889 40.085 Q 42.243 39.27 42.243 38.347 L 42.243 38.347 L 42.243 6.847 L 51.041 6.847 Z " fill="rgb(0,0,0)"/><path d=" M 10.858 71.147 L 10.858 71.147 L 10.858 71.147 Q 11.535 71.147 12.289 71.196 L 12.289 71.196 L 12.289 71.196 Q 13.042 71.244 13.873 71.385 L 13.873 71.385 L 13.873 72.501 L 13.873 72.501 Q 13.504 72.395 13.124 72.341 L 13.124 72.341 L 13.124 72.341 Q 12.744 72.287 12.366 72.234 L 12.366 72.234 L 12.366 72.234 Q 11.988 72.18 11.61 72.162 L 11.61 72.162 L 11.61 72.162 Q 11.232 72.145 10.858 72.14 L 10.858 72.14 L 10.858 72.14 Q 10.678 72.14 10.46 72.147 L 10.46 72.147 L 10.46 72.147 Q 10.243 72.154 9.995 72.167 L 9.995 72.167 L 9.995 72.167 Q 9.746 72.18 9.478 72.206 L 9.478 72.206 L 9.478 72.206 Q 9.21 72.233 8.933 72.272 L 8.933 72.272 L 8.933 73.872 L 12.774 73.872 L 12.774 74.953 L 8.933 74.953 L 8.933 77.836 L 7.852 77.836 L 7.852 71.385 L 7.852 71.385 Q 8.674 71.244 9.432 71.196 L 9.432 71.196 L 9.432 71.196 Q 10.19 71.147 10.858 71.147 Z  M 15.982 72.826 L 15.982 77.836 L 14.866 77.836 L 14.866 72.826 L 15.982 72.826 Z  M 15.428 71.086 L 15.428 71.086 L 15.428 71.086 Q 15.754 71.086 15.943 71.193 L 15.943 71.193 L 15.943 71.193 Q 16.132 71.301 16.132 71.534 L 16.132 71.534 L 16.132 71.754 L 16.132 71.754 Q 16.132 71.965 15.943 72.057 L 15.943 72.057 L 15.943 72.057 Q 15.754 72.149 15.428 72.149 L 15.428 72.149 L 15.428 72.149 Q 15.116 72.149 14.925 72.057 L 14.925 72.057 L 14.925 72.057 Q 14.734 71.965 14.734 71.754 L 14.734 71.754 L 14.734 71.534 L 14.734 71.534 Q 14.734 71.301 14.925 71.193 L 14.925 71.193 L 14.925 71.193 Q 15.116 71.086 15.428 71.086 Z  M 17.81 77.836 L 17.81 74.206 L 17.81 74.206 Q 17.793 74.065 17.729 73.969 L 17.729 73.969 L 17.729 73.969 Q 17.665 73.872 17.591 73.81 L 17.591 73.81 L 17.591 73.81 Q 17.507 73.736 17.406 73.687 L 17.406 73.687 L 17.898 72.826 L 17.898 72.826 Q 18.061 72.883 18.223 72.98 L 18.223 72.98 L 18.223 72.98 Q 18.36 73.063 18.511 73.193 L 18.511 73.193 L 18.511 73.193 Q 18.663 73.323 18.777 73.511 L 18.777 73.511 L 18.777 73.511 Q 18.997 73.371 19.228 73.246 L 19.228 73.246 L 19.228 73.246 Q 19.458 73.12 19.711 73.028 L 19.711 73.028 L 19.711 73.028 Q 19.964 72.936 20.243 72.881 L 20.243 72.881 L 20.243 72.881 Q 20.522 72.826 20.843 72.826 L 20.843 72.826 L 20.843 72.826 Q 21.519 72.826 22.005 72.938 L 22.005 72.938 L 22.005 72.938 Q 22.49 73.05 22.8 73.272 L 22.8 73.272 L 22.8 73.272 Q 23.11 73.494 23.255 73.823 L 23.255 73.823 L 23.255 73.823 Q 23.4 74.153 23.4 74.593 L 23.4 74.593 L 23.4 77.836 L 22.249 77.836 L 22.249 74.865 L 22.249 74.865 Q 22.249 74.619 22.183 74.441 L 22.183 74.441 L 22.183 74.441 Q 22.117 74.263 22.005 74.138 L 22.005 74.138 L 22.005 74.138 Q 21.893 74.012 21.743 73.933 L 21.743 73.933 L 21.743 73.933 Q 21.594 73.854 21.434 73.813 L 21.434 73.813 L 21.434 73.813 Q 21.273 73.771 21.106 73.755 L 21.106 73.755 L 21.106 73.755 Q 20.939 73.74 20.79 73.74 L 20.79 73.74 L 20.79 73.74 Q 20.509 73.74 20.254 73.78 L 20.254 73.78 L 20.254 73.78 Q 19.999 73.819 19.77 73.887 L 19.77 73.887 L 19.77 73.887 Q 19.542 73.955 19.34 74.048 L 19.34 74.048 L 19.34 74.048 Q 19.137 74.14 18.962 74.241 L 18.962 74.241 L 18.962 77.836 L 17.81 77.836 Z  M 29.728 76.834 L 29.728 76.043 L 29.728 76.043 Q 29.618 75.946 29.456 75.854 L 29.456 75.854 L 29.456 75.854 Q 29.293 75.761 29.056 75.689 L 29.056 75.689 L 29.056 75.689 Q 28.819 75.616 28.491 75.57 L 28.491 75.57 L 28.491 75.57 Q 28.164 75.524 27.724 75.524 L 27.724 75.524 L 27.724 75.524 Q 27.333 75.524 26.984 75.54 L 26.984 75.54 L 26.984 75.54 Q 26.635 75.555 26.371 75.627 L 26.371 75.627 L 26.371 75.627 Q 26.107 75.7 25.953 75.858 L 25.953 75.858 L 25.953 75.858 Q 25.8 76.016 25.8 76.298 L 25.8 76.298 L 25.8 76.86 L 25.8 76.86 Q 26.186 76.922 26.652 76.961 L 26.652 76.961 L 26.652 76.961 Q 27.118 77.001 27.689 77.001 L 27.689 77.001 L 27.689 77.001 Q 28.146 77.001 28.663 76.968 L 28.663 76.968 L 28.663 76.968 Q 29.179 76.935 29.728 76.834 L 29.728 76.834 Z  M 27.751 72.826 L 27.751 72.826 L 27.751 72.826 Q 27.97 72.826 28.282 72.848 L 28.282 72.848 L 28.282 72.848 Q 28.594 72.87 28.933 72.925 L 28.933 72.925 L 28.933 72.925 Q 29.271 72.98 29.603 73.074 L 29.603 73.074 L 29.603 73.074 Q 29.935 73.169 30.201 73.32 L 30.201 73.32 L 30.201 73.32 Q 30.467 73.472 30.629 73.683 L 30.629 73.683 L 30.629 73.683 Q 30.792 73.894 30.792 74.179 L 30.792 74.179 L 30.792 77.581 L 30.792 77.581 Q 30.423 77.656 29.957 77.708 L 29.957 77.708 L 29.957 77.708 Q 29.557 77.757 29.003 77.796 L 29.003 77.796 L 29.003 77.796 Q 28.449 77.836 27.768 77.836 L 27.768 77.836 L 27.768 77.836 Q 27.092 77.836 26.329 77.779 L 26.329 77.779 L 26.329 77.779 Q 25.567 77.721 24.736 77.581 L 24.736 77.581 L 24.736 75.999 L 24.736 75.999 Q 24.736 75.744 24.857 75.553 L 24.857 75.553 L 24.857 75.553 Q 24.978 75.362 25.189 75.225 L 25.189 75.225 L 25.189 75.225 Q 25.4 75.089 25.685 75.001 L 25.685 75.001 L 25.685 75.001 Q 25.971 74.913 26.301 74.861 L 26.301 74.861 L 26.301 74.861 Q 26.63 74.808 26.986 74.788 L 26.986 74.788 L 26.986 74.788 Q 27.342 74.768 27.698 74.768 L 27.698 74.768 L 27.698 74.768 Q 28.239 74.768 28.619 74.836 L 28.619 74.836 L 28.619 74.836 Q 28.999 74.905 29.249 74.984 L 29.249 74.984 L 29.249 74.984 Q 29.539 75.08 29.728 75.199 L 29.728 75.199 L 29.728 74.487 L 29.728 74.487 Q 29.728 74.307 29.64 74.177 L 29.64 74.177 L 29.64 74.177 Q 29.552 74.048 29.403 73.958 L 29.403 73.958 L 29.403 73.958 Q 29.254 73.867 29.06 73.813 L 29.06 73.813 L 29.06 73.813 Q 28.867 73.758 28.656 73.727 L 28.656 73.727 L 28.656 73.727 Q 28.445 73.696 28.228 73.687 L 28.228 73.687 L 28.228 73.687 Q 28.01 73.678 27.821 73.678 L 27.821 73.678 L 27.821 73.678 Q 27.623 73.678 27.399 73.689 L 27.399 73.689 L 27.399 73.689 Q 27.175 73.7 26.953 73.731 L 26.953 73.731 L 26.953 73.731 Q 26.731 73.762 26.527 73.817 L 26.527 73.817 L 26.527 73.817 Q 26.323 73.872 26.164 73.964 L 26.164 73.964 L 26.164 73.964 Q 26.006 74.056 25.912 74.186 L 25.912 74.186 L 25.912 74.186 Q 25.817 74.316 25.817 74.496 L 25.817 74.496 L 24.727 74.215 L 24.727 74.215 Q 24.727 73.92 24.872 73.703 L 24.872 73.703 L 24.872 73.703 Q 25.017 73.485 25.257 73.331 L 25.257 73.331 L 25.257 73.331 Q 25.496 73.177 25.808 73.079 L 25.808 73.079 L 25.808 73.079 Q 26.12 72.98 26.457 72.925 L 26.457 72.925 L 26.457 72.925 Q 26.793 72.87 27.127 72.848 L 27.127 72.848 L 27.127 72.848 Q 27.461 72.826 27.751 72.826 Z  M 32.321 77.836 L 32.321 74.206 L 32.321 74.206 Q 32.303 74.065 32.24 73.969 L 32.24 73.969 L 32.24 73.969 Q 32.176 73.872 32.101 73.81 L 32.101 73.81 L 32.101 73.81 Q 32.018 73.736 31.917 73.687 L 31.917 73.687 L 32.409 72.826 L 32.409 72.826 Q 32.572 72.883 32.734 72.98 L 32.734 72.98 L 32.734 72.98 Q 32.87 73.063 33.022 73.193 L 33.022 73.193 L 33.022 73.193 Q 33.174 73.323 33.288 73.511 L 33.288 73.511 L 33.288 73.511 Q 33.508 73.371 33.738 73.246 L 33.738 73.246 L 33.738 73.246 Q 33.969 73.12 34.222 73.028 L 34.222 73.028 L 34.222 73.028 Q 34.474 72.936 34.753 72.881 L 34.753 72.881 L 34.753 72.881 Q 35.032 72.826 35.353 72.826 L 35.353 72.826 L 35.353 72.826 Q 36.03 72.826 36.516 72.938 L 36.516 72.938 L 36.516 72.938 Q 37.001 73.05 37.311 73.272 L 37.311 73.272 L 37.311 73.272 Q 37.621 73.494 37.766 73.823 L 37.766 73.823 L 37.766 73.823 Q 37.911 74.153 37.911 74.593 L 37.911 74.593 L 37.911 77.836 L 36.76 77.836 L 36.76 74.865 L 36.76 74.865 Q 36.76 74.619 36.694 74.441 L 36.694 74.441 L 36.694 74.441 Q 36.628 74.263 36.516 74.138 L 36.516 74.138 L 36.516 74.138 Q 36.404 74.012 36.254 73.933 L 36.254 73.933 L 36.254 73.933 Q 36.105 73.854 35.944 73.813 L 35.944 73.813 L 35.944 73.813 Q 35.784 73.771 35.617 73.755 L 35.617 73.755 L 35.617 73.755 Q 35.45 73.74 35.301 73.74 L 35.301 73.74 L 35.301 73.74 Q 35.019 73.74 34.764 73.78 L 34.764 73.78 L 34.764 73.78 Q 34.51 73.819 34.281 73.887 L 34.281 73.887 L 34.281 73.887 Q 34.052 73.955 33.85 74.048 L 33.85 74.048 L 33.85 74.048 Q 33.648 74.14 33.472 74.241 L 33.472 74.241 L 33.472 77.836 L 32.321 77.836 Z  M 42.182 72.747 L 42.182 72.747 L 42.182 72.747 Q 42.547 72.747 42.916 72.782 L 42.916 72.782 L 42.916 72.782 Q 43.285 72.817 43.624 72.896 L 43.624 72.896 L 43.624 72.896 Q 43.962 72.975 44.257 73.094 L 44.257 73.094 L 44.257 73.094 Q 44.551 73.213 44.769 73.38 L 44.769 73.38 L 44.769 73.38 Q 44.986 73.547 45.109 73.764 L 45.109 73.764 L 45.109 73.764 Q 45.232 73.982 45.232 74.25 L 45.232 74.25 L 44.107 74.417 L 44.107 74.417 Q 44.107 74.228 43.945 74.076 L 43.945 74.076 L 43.945 74.076 Q 43.782 73.925 43.514 73.821 L 43.514 73.821 L 43.514 73.821 Q 43.246 73.718 42.899 73.663 L 42.899 73.663 L 42.899 73.663 Q 42.552 73.608 42.182 73.608 L 42.182 73.608 L 42.182 73.608 Q 41.831 73.608 41.488 73.659 L 41.488 73.659 L 41.488 73.659 Q 41.145 73.709 40.875 73.81 L 40.875 73.81 L 40.875 73.81 Q 40.605 73.911 40.436 74.063 L 40.436 74.063 L 40.436 74.063 Q 40.266 74.215 40.266 74.417 L 40.266 74.417 L 40.266 76.245 L 40.266 76.245 Q 40.266 76.447 40.436 76.594 L 40.436 76.594 L 40.436 76.594 Q 40.605 76.741 40.875 76.84 L 40.875 76.84 L 40.875 76.84 Q 41.145 76.939 41.488 76.988 L 41.488 76.988 L 41.488 76.988 Q 41.831 77.036 42.182 77.036 L 42.182 77.036 L 42.182 77.036 Q 42.552 77.036 42.899 76.983 L 42.899 76.983 L 42.899 76.983 Q 43.246 76.93 43.514 76.832 L 43.514 76.832 L 43.514 76.832 Q 43.782 76.733 43.945 76.585 L 43.945 76.585 L 43.945 76.585 Q 44.107 76.438 44.107 76.245 L 44.107 76.245 L 45.232 76.526 L 45.232 76.526 Q 45.232 76.763 45.109 76.961 L 45.109 76.961 L 45.109 76.961 Q 44.986 77.159 44.769 77.315 L 44.769 77.315 L 44.769 77.315 Q 44.551 77.471 44.257 77.585 L 44.257 77.585 L 44.257 77.585 Q 43.962 77.699 43.624 77.774 L 43.624 77.774 L 43.624 77.774 Q 43.285 77.849 42.916 77.886 L 42.916 77.886 L 42.916 77.886 Q 42.547 77.924 42.182 77.924 L 42.182 77.924 L 42.182 77.924 Q 41.818 77.924 41.451 77.886 L 41.451 77.886 L 41.451 77.886 Q 41.084 77.849 40.745 77.774 L 40.745 77.774 L 40.745 77.774 Q 40.407 77.699 40.115 77.585 L 40.115 77.585 L 40.115 77.585 Q 39.823 77.471 39.605 77.315 L 39.605 77.315 L 39.605 77.315 Q 39.387 77.159 39.264 76.963 L 39.264 76.963 L 39.264 76.963 Q 39.141 76.768 39.141 76.526 L 39.141 76.526 L 39.141 74.25 L 39.141 74.25 Q 39.141 73.982 39.264 73.764 L 39.264 73.764 L 39.264 73.764 Q 39.387 73.547 39.605 73.38 L 39.605 73.38 L 39.605 73.38 Q 39.823 73.213 40.115 73.094 L 40.115 73.094 L 40.115 73.094 Q 40.407 72.975 40.745 72.896 L 40.745 72.896 L 40.745 72.896 Q 41.084 72.817 41.451 72.782 L 41.451 72.782 L 41.451 72.782 Q 41.818 72.747 42.182 72.747 Z  M 49.31 72.826 L 49.31 72.826 L 49.31 72.826 Q 49.534 72.826 49.851 72.848 L 49.851 72.848 L 49.851 72.848 Q 50.167 72.87 50.508 72.925 L 50.508 72.925 L 50.508 72.925 Q 50.848 72.98 51.182 73.079 L 51.182 73.079 L 51.182 73.079 Q 51.516 73.177 51.782 73.331 L 51.782 73.331 L 51.782 73.331 Q 52.048 73.485 52.213 73.703 L 52.213 73.703 L 52.213 73.703 Q 52.378 73.92 52.378 74.215 L 52.378 74.215 L 52.378 75.7 L 47.342 75.7 L 47.342 76.825 L 47.342 76.825 Q 47.876 76.871 48.367 76.914 L 48.367 76.914 L 48.367 76.914 Q 48.858 76.957 49.31 76.957 L 49.31 76.957 L 49.31 76.957 Q 50 76.957 50.557 76.877 L 50.557 76.877 L 50.557 76.877 Q 51.113 76.796 51.523 76.737 L 51.523 76.737 L 51.523 76.737 Q 51.997 76.684 52.378 76.614 L 52.378 76.614 L 52.378 77.59 L 52.378 77.59 Q 51.543 77.721 50.767 77.779 L 50.767 77.779 L 50.767 77.779 Q 49.991 77.836 49.31 77.836 L 49.31 77.836 L 49.31 77.836 Q 48.625 77.836 48.068 77.778 L 48.068 77.778 L 48.068 77.778 Q 47.512 77.719 47.112 77.678 L 47.112 77.678 L 47.112 77.678 Q 46.644 77.64 46.269 77.59 L 46.269 77.59 L 46.269 74.215 L 46.269 74.215 Q 46.269 73.92 46.414 73.703 L 46.414 73.703 L 46.414 73.703 Q 46.559 73.485 46.801 73.331 L 46.801 73.331 L 46.801 73.331 Q 47.043 73.177 47.357 73.079 L 47.357 73.079 L 47.357 73.079 Q 47.671 72.98 48.01 72.925 L 48.01 72.925 L 48.01 72.925 Q 48.348 72.87 48.684 72.848 L 48.684 72.848 L 48.684 72.848 Q 49.02 72.826 49.31 72.826 Z  M 47.342 74.496 L 47.342 74.997 L 51.288 74.997 L 51.288 74.487 L 51.288 74.487 Q 51.288 74.307 51.2 74.177 L 51.2 74.177 L 51.2 74.177 Q 51.112 74.048 50.965 73.96 L 50.965 73.96 L 50.965 73.96 Q 50.818 73.872 50.622 73.817 L 50.622 73.817 L 50.622 73.817 Q 50.427 73.762 50.216 73.733 L 50.216 73.733 L 50.216 73.733 Q 50.005 73.705 49.792 73.696 L 49.792 73.696 L 49.792 73.696 Q 49.578 73.687 49.389 73.687 L 49.389 73.687 L 49.389 73.687 Q 49.192 73.687 48.965 73.696 L 48.965 73.696 L 48.965 73.696 Q 48.739 73.705 48.51 73.736 L 48.51 73.736 L 48.51 73.736 Q 48.282 73.766 48.071 73.821 L 48.071 73.821 L 48.071 73.821 Q 47.86 73.876 47.698 73.966 L 47.698 73.966 L 47.698 73.966 Q 47.535 74.056 47.438 74.186 L 47.438 74.186 L 47.438 74.186 Q 47.342 74.316 47.342 74.496 L 47.342 74.496 Z " fill="rgb(0,0,0)"/><path d=" M 20.092 56.244 L 20.092 64.744 L 20.092 64.744 Q 20.092 65.483 19.813 66.135 L 19.813 66.135 L 19.813 66.135 Q 19.535 66.786 19.05 67.272 L 19.05 67.272 L 19.05 67.272 Q 18.564 67.758 17.913 68.036 L 17.913 68.036 L 17.913 68.036 Q 17.261 68.314 16.522 68.314 L 16.522 68.314 L 16.522 68.314 Q 15.858 68.314 15.248 68.081 L 15.248 68.081 L 15.248 68.081 Q 14.638 67.849 14.148 67.401 L 14.148 67.401 L 14.148 67.401 Q 13.658 67.849 13.044 68.081 L 13.044 68.081 L 13.044 68.081 Q 12.43 68.314 11.766 68.314 L 11.766 68.314 L 11.766 68.314 Q 11.027 68.314 10.375 68.036 L 10.375 68.036 L 10.375 68.036 Q 9.724 67.758 9.238 67.272 L 9.238 67.272 L 9.238 67.272 Q 8.753 66.786 8.475 66.135 L 8.475 66.135 L 8.475 66.135 Q 8.197 65.483 8.197 64.744 L 8.197 64.744 L 8.197 56.244 L 10.579 56.244 L 10.579 64.744 L 10.579 64.744 Q 10.579 64.993 10.67 65.213 L 10.67 65.213 L 10.67 65.213 Q 10.761 65.433 10.923 65.595 L 10.923 65.595 L 10.923 65.595 Q 11.085 65.757 11.301 65.848 L 11.301 65.848 L 11.301 65.848 Q 11.517 65.94 11.766 65.94 L 11.766 65.94 L 11.766 65.94 Q 12.015 65.94 12.231 65.848 L 12.231 65.848 L 12.231 65.848 Q 12.447 65.757 12.608 65.595 L 12.608 65.595 L 12.608 65.595 Q 12.77 65.433 12.862 65.213 L 12.862 65.213 L 12.862 65.213 Q 12.953 64.993 12.953 64.744 L 12.953 64.744 L 12.953 56.244 L 15.335 56.244 L 15.335 64.744 L 15.335 64.744 Q 15.335 64.993 15.427 65.213 L 15.427 65.213 L 15.427 65.213 Q 15.518 65.433 15.68 65.595 L 15.68 65.595 L 15.68 65.595 Q 15.842 65.757 16.057 65.848 L 16.057 65.848 L 16.057 65.848 Q 16.273 65.94 16.522 65.94 L 16.522 65.94 L 16.522 65.94 Q 16.771 65.94 16.987 65.848 L 16.987 65.848 L 16.987 65.848 Q 17.203 65.757 17.365 65.595 L 17.365 65.595 L 17.365 65.595 Q 17.527 65.433 17.622 65.213 L 17.622 65.213 L 17.622 65.213 Q 17.718 64.993 17.718 64.744 L 17.718 64.744 L 17.718 56.244 L 20.092 56.244 Z  M 24.458 63.391 L 29.222 63.391 L 29.222 61.009 L 29.222 61.009 Q 29.222 60.519 29.036 60.083 L 29.036 60.083 L 29.036 60.083 Q 28.849 59.648 28.525 59.324 L 28.525 59.324 L 28.525 59.324 Q 28.201 59 27.766 58.813 L 27.766 58.813 L 27.766 58.813 Q 27.33 58.627 26.84 58.627 L 26.84 58.627 L 26.84 58.627 Q 26.35 58.627 25.915 58.813 L 25.915 58.813 L 25.915 58.813 Q 25.479 59 25.155 59.324 L 25.155 59.324 L 25.155 59.324 Q 24.831 59.648 24.645 60.083 L 24.645 60.083 L 24.645 60.083 Q 24.458 60.519 24.458 61.009 L 24.458 61.009 L 24.458 63.391 Z  M 31.605 61.009 L 31.605 68.148 L 29.222 68.148 L 29.222 65.765 L 24.458 65.765 L 24.458 68.148 L 22.084 68.148 L 22.084 61.009 L 22.084 61.009 Q 22.084 60.021 22.457 59.154 L 22.457 59.154 L 22.457 59.154 Q 22.831 58.286 23.474 57.639 L 23.474 57.639 L 23.474 57.639 Q 24.117 56.991 24.985 56.618 L 24.985 56.618 L 24.985 56.618 Q 25.852 56.244 26.84 56.244 L 26.84 56.244 L 26.84 56.244 Q 27.828 56.244 28.695 56.618 L 28.695 56.618 L 28.695 56.618 Q 29.563 56.991 30.21 57.639 L 30.21 57.639 L 30.21 57.639 Q 30.858 58.286 31.231 59.154 L 31.231 59.154 L 31.231 59.154 Q 31.605 60.021 31.605 61.009 L 31.605 61.009 Z  M 38.436 58.627 L 36.054 58.627 L 36.054 63.391 L 38.436 63.391 L 38.436 63.391 Q 38.926 63.391 39.358 63.205 L 39.358 63.205 L 39.358 63.205 Q 39.789 63.018 40.113 62.694 L 40.113 62.694 L 40.113 62.694 Q 40.437 62.37 40.624 61.935 L 40.624 61.935 L 40.624 61.935 Q 40.81 61.499 40.81 61.009 L 40.81 61.009 L 40.81 61.009 Q 40.81 60.519 40.624 60.083 L 40.624 60.083 L 40.624 60.083 Q 40.437 59.648 40.113 59.324 L 40.113 59.324 L 40.113 59.324 Q 39.789 59 39.358 58.813 L 39.358 58.813 L 39.358 58.813 Q 38.926 58.627 38.436 58.627 L 38.436 58.627 Z  M 36.054 65.765 L 36.054 68.148 L 33.672 68.148 L 33.672 56.244 L 38.436 56.244 L 38.436 56.244 Q 39.092 56.244 39.698 56.415 L 39.698 56.415 L 39.698 56.415 Q 40.304 56.585 40.831 56.896 L 40.831 56.896 L 40.831 56.896 Q 41.358 57.207 41.794 57.643 L 41.794 57.643 L 41.794 57.643 Q 42.23 58.079 42.541 58.61 L 42.541 58.61 L 42.541 58.61 Q 42.852 59.141 43.022 59.747 L 43.022 59.747 L 43.022 59.747 Q 43.193 60.353 43.193 61.009 L 43.193 61.009 L 43.193 61.009 Q 43.193 61.623 43.039 62.204 L 43.039 62.204 L 43.039 62.204 Q 42.885 62.785 42.599 63.308 L 42.599 63.308 L 42.599 63.308 Q 42.313 63.831 41.898 64.271 L 41.898 64.271 L 41.898 64.271 Q 41.483 64.711 40.968 65.035 L 40.968 65.035 L 42.288 68.148 L 39.756 68.148 L 38.719 65.749 L 36.054 65.765 Z  M 52.913 65.765 L 52.913 68.148 L 44.753 68.148 L 44.753 56.244 L 52.913 56.244 L 52.913 58.627 L 47.135 58.627 L 47.135 61.009 L 51.045 61.009 L 51.045 63.391 L 47.135 63.391 L 47.135 65.765 L 52.913 65.765 Z " fill="rgb(0,0,0)"/></g></svg>